<?xml version="1.0" ?><svg height="512" preserveAspectRatio="xMidYMid" viewBox="0 0 512 512" width="512" xmlns="http://www.w3.org/2000/svg" xmlns:xlink="http://www.w3.org/1999/xlink"><defs><style>
      .cls-1 {
        fill: #3498db;
      }

      .cls-2 {
        fill: #000;
        opacity: 0.3;
      }

      .cls-2, .cls-3 {
        fill-rule: evenodd;
      }

      .cls-3 {
        fill: #fff;
      }
    </style></defs><g><circle class="cls-1" cx="256" cy="256" r="256"/><path class="cls-2" d="M136.000,168.000 L368.000,167.000 L381.000,177.000 L381.000,339.000 L275.696,511.254 C269.195,511.748 262.627,512.000 256.000,512.000 C114.615,512.000 -0.000,397.385 -0.000,256.000 C-0.000,255.724 0.000,255.449 0.001,255.173 L136.000,168.000 Z"/><path class="cls-3" d="M383.998,180.311 C383.357,193.133 383.998,333.349 383.998,333.349 C383.998,333.349 380.899,348.320 367.612,348.320 C322.686,348.320 164.803,350.313 145.809,349.984 C128.222,349.805 127.998,333.349 127.998,333.349 L127.998,181.975 C127.540,164.803 149.609,163.677 149.609,163.677 L367.375,162.014 C367.375,162.014 384.639,167.490 383.998,180.311 ZM377.645,186.257 C377.645,186.257 373.932,168.268 358.695,169.203 C342.564,179.801 256.052,243.624 256.052,243.624 L153.408,170.753 C153.408,170.753 133.956,169.897 134.458,186.257 C134.200,200.721 134.458,331.999 134.458,331.999 C134.458,331.999 138.839,343.376 159.724,342.852 L161.303,215.716 L256.052,279.284 L349.221,217.266 L350.800,342.852 C373.617,342.852 377.645,331.999 377.645,331.999 L377.645,186.257 Z"/></g></svg>